<?xml version="1.0" encoding="UTF-8" standalone="no"?>
<!-- Created with Inkscape (http://www.inkscape.org/) -->

<svg
   width="128"
   height="128"
   viewBox="0 0 33.866667 33.866667"
   version="1.1"
   id="svg1"
   xmlns="http://www.w3.org/2000/svg">
  <g
     id="layer1">
    <path
       id="ellipse7"
       style="fill:#eef1f4;stroke-width:0.391091;stroke-linejoin:round;paint-order:markers stroke fill"
       d="M 33.603907,16.933333 A 16.670573,16.811165 0 0 1 16.933333,33.7445 16.670573,16.811165 0 0 1 0.26275939,16.933333 16.670573,16.811165 0 0 1 16.933333,0.12216664 16.670573,16.811165 0 0 1 33.603907,16.933333 Z" />
    <path
       style="color:#000000;fill:#545f71;stroke-width:0.473821;stroke-linecap:round;stroke-linejoin:round;-inkscape-stroke:none"
       d="m 16.226984,11.468629 a 0.77726361,0.77726361 0 0 0 -1.098488,0.0056 l -4.889059,4.93718 a 0.77734131,0.77734131 0 0 0 9.47e-4,1.095712 l 4.89276,4.914044 a 0.77726361,0.77726361 0 0 0 1.098488,0.0028 0.77726361,0.77726361 0 0 0 0.0028,-1.099412 l -4.34768,-4.367116 4.345832,-4.389325 a 0.77726361,0.77726361 0 0 0 -0.0055,-1.099412 z"
       id="path8" />
    <path
       style="color:#000000;fill:#545f71;stroke-width:0.473821;stroke-linecap:round;-inkscape-stroke:none"
       d="m 11.188003,16.195736 a 0.77726361,0.77726361 0 0 0 -0.779213,0.775512 0.77726361,0.77726361 0 0 0 0.776437,0.77829 l 12.237918,0.02127 a 0.77726361,0.77726361 0 0 0 0.779214,-0.776436 0.77726361,0.77726361 0 0 0 -0.776437,-0.77829 z"
       id="path9" />
  </g>
</svg>
