<?xml version="1.0" encoding="UTF-8" standalone="no"?>
<!-- Created with Inkscape (http://www.inkscape.org/) -->

<svg
   width="48"
   height="48"
   viewBox="0 0 12.7 12.7"
   version="1.1"
   id="svg1"
   xmlns="http://www.w3.org/2000/svg"
   xmlns:svg="http://www.w3.org/2000/svg">
  <defs
     id="defs1" />
  <g
     id="layer1">
    <g
       id="path3"
       transform="matrix(0.26336244,0,0,0.26336244,-121.91042,-71.9271)">
      <path
         style="fill:#ffe745;stroke-linecap:round;stroke-linejoin:round;paint-order:fill markers stroke"
         d="m 464.97981,292.23056 15.43622,-2.2489 6.93004,-13.72655 7.22379,13.61971 14.96794,2.59235 -10.7485,10.70691 2.12672,15.08012 -13.55658,-6.74805 -13.4471,6.65985 2.16407,-14.81832 z"
         id="path5" />
      <path
         style="fill:#efa742;stroke-linecap:round;stroke-linejoin:round;paint-order:fill markers stroke"
         d="m 487.33594,275.27344 a 0.98259827,0.98259827 0 0 0 -0.86719,0.53906 l -6.69922,13.27148 -14.93164,2.17383 a 0.98259827,0.98259827 0 0 0 -0.55273,1.66602 l 10.74804,10.76953 -2.09375,14.33008 a 0.98259827,0.98259827 0 0 0 1.40821,1.02343 l 13.00976,-6.44335 13.1211,6.52929 a 0.98259827,0.98259827 0 0 0 1.41015,-1.01562 l -2.05859,-14.59375 10.40039,-10.35938 A 0.98259827,0.98259827 0 0 0 509.70508,291.5 l -14.49219,-2.51172 -6.99805,-13.19336 a 0.98259827,0.98259827 0 0 0 -0.8789,-0.52148 z m 0.0312,3.11718 6.33398,11.94532 a 0.98259827,0.98259827 0 0 0 0.70117,0.50781 l 13.09571,2.26758 -9.40235,9.36719 a 0.98259827,0.98259827 0 0 0 -0.27929,0.83203 l 1.86718,13.23242 -11.88672,-5.91602 a 0.98259827,0.98259827 0 0 0 -0.87304,-0.002 l -11.76758,5.82812 1.89258,-12.96289 a 0.98259827,0.98259827 0 0 0 -0.27735,-0.83593 l -9.71484,-9.73243 13.50195,-1.96875 a 0.98259827,0.98259827 0 0 0 0.73438,-0.52929 z"
         id="path6" />
    </g>
  </g>
</svg>
