<?xml version="1.0" encoding="UTF-8" standalone="no"?>
<!-- Created with Inkscape (http://www.inkscape.org/) -->

<svg
   width="48"
   height="48"
   viewBox="0 0 12.7 12.7"
   version="1.1"
   id="svg1"
   xmlns="http://www.w3.org/2000/svg"
   xmlns:svg="http://www.w3.org/2000/svg">
  <defs
     id="defs1" />
  <g
     id="layer1">
    <g
       id="g7"
       transform="matrix(0.33487721,0,0,0.33487721,-124.38566,-87.315153)"
       style="fill:#f9f9f9;fill-opacity:1">
      <path
         id="path7"
         style="fill:#f9f9f9;fill-opacity:1;stroke-linecap:round;stroke-linejoin:round"
         d="m 390.44577,261.66427 v 5.2e-4 c -0.37703,-0.002 -0.71398,0.2357 -0.8382,0.59169 0,0 -1.13577,3.25382 -2.23397,6.49986 -0.54909,1.62302 -1.08853,3.24359 -1.47484,4.46278 -0.17565,0.55436 -0.30734,0.99343 -0.40825,1.35341 -0.34907,-10e-4 -0.7598,-5e-4 -1.30638,0.002 -1.27617,0.006 -3.00292,0.02 -4.73873,0.0372 -3.47162,0.0345 -6.98045,0.078 -6.98045,0.078 -0.85118,0.0121 -1.19343,1.10365 -0.50178,1.5999 l 2.12339,1.52084 h 32.71118 l 2.05,-1.53686 c 0.68101,-0.50839 0.32068,-1.59083 -0.52916,-1.58956 l -12.86692,-0.0176 -4.17597,-12.40028 c -0.11994,-0.35713 -0.45319,-0.59922 -0.82992,-0.60203 z m -14.85439,17.22427 6.96184,4.98678 -3.96513,12.58011 c -0.25514,0.8129 0.67565,1.47981 1.36323,0.97668 l 10.6195,-7.77317 10.51357,7.89616 c 0.68684,0.51548 1.63054,-0.15395 1.37098,-0.97255 l -3.96462,-12.54497 6.86883,-5.14904 z" />
    </g>
  </g>
</svg>
