<?xml version="1.0" encoding="UTF-8" standalone="no"?>
<!-- Created with Inkscape (http://www.inkscape.org/) -->

<svg
   width="48"
   height="48"
   viewBox="0 0 12.7 12.7"
   version="1.1"
   id="svg1"
   xmlns="http://www.w3.org/2000/svg"
   xmlns:svg="http://www.w3.org/2000/svg">
  <defs
     id="defs1" />
  <g
     id="layer1">
    <path
       id="path4"
       style="fill:#f9f9f9;fill-opacity:1;stroke-width:0.334933;stroke-linecap:round;stroke-linejoin:round"
       d="M 6.3658826,0.31004677 A 0.29560808,0.29560808 0 0 0 6.085145,0.50822667 c 0,0 -0.3805812,1.08981223 -0.7484048,2.17701873 -0.1839085,0.5436032 -0.364414,1.0863859 -0.4938021,1.4947331 -0.05883,0.1856735 -0.102935,0.3327293 -0.136733,0.4532985 -0.116915,-3.349e-4 -0.254656,-1.641e-4 -0.437724,6.699e-4 -0.427432,0.00201 -1.005604,0.0067 -1.586984,0.012459 -1.162761,0.011555 -2.33798399,0.026125 -2.33798399,0.026125 a 0.29560808,0.29560808 0 0 0 -0.168063,0.5358596 L 3.7224091,7.7490529 2.3943551,11.962553 a 0.29560808,0.29560808 0 0 0 0.456588,0.327122 L 6.4075952,9.6861825 9.9291128,12.330869 A 0.29560808,0.29560808 0 0 0 10.3883,12.00513 L 9.0602425,7.8034025 12.529317,5.2030248 A 0.29560808,0.29560808 0 0 0 12.352083,4.6706251 L 8.0425246,4.6647351 6.6438537,0.51147337 A 0.29560808,0.29560808 0 0 0 6.3658826,0.30999987 Z" />
  </g>
</svg>
